<svg xmlns="http://www.w3.org/2000/svg" xmlns:xlink="http://www.w3.org/1999/xlink" version="1.1" x="0px" y="0px" viewBox="0 0 512 640" enable-background="new 0 0 512 512" xml:space="preserve"><g><path d="M304.3,490.3c-63.7-6.3-118.2-1.6-140.7,0c-51.9,3.6-92.8,6.5-114.5-13.7c-12.5-11.7-18.6-31.5-18.6-60.6   c0-85.2,53.2-161.2,132.7-190.7c20,14.1,44.4,22.5,70.7,22.5c26.3,0,50.7-8.4,70.7-22.6c26.5,9.9,51.2,25.4,71.5,45.3l11.5-11.8   c-19.7-19.3-43.2-34.8-68.5-45.5c23.2-22.4,37.7-53.7,37.7-88.3C356.8,57.1,301.7,2,233.9,2c-67.8,0-122.9,55.1-122.9,122.9   c0,34.7,14.5,66,37.7,88.4C67.7,247.3,14.1,327,14.1,415.9c0,33.9,8.3,57.1,23.9,72.6c30.9,30.9,94.8,19.8,126.9,18.1   c61.6-3.2,60.8-6.2,138.4,0c71,5.7,132.5,9.3,147.3-56.5l-16.1-3.6C430.1,488.6,386.4,498.4,304.3,490.3z M127.5,124.9   c0-58.7,47.7-106.4,106.4-106.4c58.7,0,106.4,47.7,106.4,106.4c0,58.7-47.7,106.4-106.4,106.4C175.3,231.3,127.5,183.6,127.5,124.9   z"/><path d="M419.2,275.4c-43.4,0-78.8,35.3-78.8,78.8s35.3,78.8,78.8,78.8s78.8-35.3,78.8-78.8S462.6,275.4,419.2,275.4z M419.2,416.5   c-34.4,0-62.3-28-62.3-62.3c0-34.4,28-62.3,62.3-62.3c34.4,0,62.3,28,62.3,62.3C481.5,388.6,453.5,416.5,419.2,416.5z"/><polygon points="427.4,346 427.4,310.1 410.9,310.1 410.9,346 375.1,346 375.1,362.4 410.9,362.4 410.9,398.3 427.4,398.3    427.4,362.4 463.3,362.4 463.3,346  "/></g></svg>